# xmcd
#
# Track frame offsets:
#	150
#	20229
#	31688
#	44363
#	59491
#	74899
#	92476
#	108658
#	119171
#	130230
#	148101
#	160500
#	177908
#	195036
#	209094
#
# Disc length: 2938 seconds
#
# Revision: 6
# Processed by: cddbd v1.5.2PL0 Copyright (c) Steve Scherf et al.
# Submitted via: audiograbber 1.83.01
#
DISCID=e20b780f
DTITLE=Celtic Woman - Celtic Woman - A Christmas Celebration
DYEAR=2006
DGENRE=New Age
TTITLE0=Chloe, Lisa, Miav, Orla and Mairead - O Holy Night
TTITLE1=Chloe, Lisa, Miav, Orla and Mairead - Away In A Manger
TTITLE2=Chloe, Lisa, Miav, Orla and Mairead - Ding Dong Merrily On High
TTITLE3=Chloe, Lisa, Miav, Orla and Mairead - White Christmas
TTITLE4=Chloe, Lisa, Miav, Orla and Mairead - Silent Night
TTITLE5=Chloe, Lisa, Miav, Orla and Mairead - Christmas Pipes
TTITLE6=Chloe, Lisa, Miav, Orla and Mairead - The Christmas Song
TTITLE7=Chloe, Lisa, Miav, Orla and Mairead - Carol Of The Bells
TTITLE8=Chloe, Lisa, Miav, Orla and Mairead - Have Yourself A Merry Little Christ
TTITLE8=mas
TTITLE9=Chloe, Lisa, Miav, Orla and Mairead - Panis Angelicus
TTITLE10=Chloe, Lisa, Miav, Orla and Mairead - Don Oiche Ud I MBeithil (That Nigh
TTITLE10=t In Bethlehem)
TTITLE11=Chloe, Lisa, Miav, Orla and Mairead - O Come, All Ye Faithful
TTITLE12=Chloe, Lisa, Miav, Orla and Mairead - Little Drummer Boy
TTITLE13=Chloe, Lisa, Miav, Orla and Mairead - The Wexford Carol
TTITLE14=Chloe, Lisa, Miav, Orla and Mairead - Let it Snow!
EXTD=YEAR: 2006
EXTT0=
EXTT1=
EXTT2=
EXTT3=
EXTT4=
EXTT5=
EXTT6=
EXTT7=
EXTT8=
EXTT9=
EXTT10=
EXTT11=
EXTT12=
EXTT13=
EXTT14=
PLAYORDER=
